{"title":"18+ Hooligan Legacy 2016 Movies HDRip XviD New Source +Sample ☻r","uid":14731039,"size":739484108,"categoryP":"video","categoryS":"movies","magnet":"?xt=urn:btih:2d0af71fe9dde0379642c6508455da5438128afe&amp;dn=18%2B+Hooligan+Legacy+2016+Movies+HDRip+XviD+New+Source+%2BSample+%E2%98%BBr&amp;tr=udp%3A%2F%2Ftracker.leechers-paradise.org%3A6969&amp;tr=udp%3A%2F%2Fzer0day.ch%3A1337&amp;tr=udp%3A%2F%2Fopen.demonii.com%3A1337&amp;tr=udp%3A%2F%2Ftracker.coppersurfer.tk%3A6969&amp;tr=udp%3A%2F%2Fexodus.desync.com%3A6969","seeders":0,"leechers":1,"uploader":"basicssom","files":2,"time":1464596151,"description":"----------------------------------------------------------------\r\n18+ Hooligan Legacy 2016 English Movies HDRip XviD AAC New Source with Sample ☻rDX☻\r\n\r\nSCREEN SHOTS &amp; POSTER:\r\n  \nhttp://mobileshosting.com/2016/5/call/index.htm  \nhttp://mobileshosting.com/2016/5/call/1.html  \nhttp://mobileshosting.com/2016/5/call/2.html  \nhttp://mobileshosting.com/2016/5/call/3.html  \nhttp://mobileshosting.com/2016/5/call/4.html  \nhttp://mobileshosting.com/2016/5/call/5.html  \nhttp://mobileshosting.com/2016/5/call/6.html  \nhttp://mobileshosting.com/2016/5/call/7.html  \nhttp://mobileshosting.com/2016/5/call/8.html  \nhttp://mobileshosting.com/2016/5/call/9.html  \nhttp://mobileshosting.com/2016/5/call/10.html\r\n\r\nFormat                                   : Matroska\r\nFormat version                           : Version 4 / Version 2\r\nFile size                                : 695 MiB\r\nDuration                                 : 1h 13mn\r\nOverall bit rate                         : 1 325 Kbps\r\nMovie name                               : 18+ Hooligan Legacy 2016 English Movies HDRip XviD AAC New Source ☻rDX☻\r\n\r\nVideo\r\nID                                       : 1\r\nFormat                                   : MPEG-4 Visual\r\nFormat profile                           : Advanced   \r\nFormat settings, BVOP                    : Yes\r\nFormat settings, QPel                    : No\r\nFormat settings, GMC                     : No warppoints\r\nFormat settings, Matrix                  : Default (H.263)\r\nCodec ID                                 : V_MS/VFW/FOURCC / XVID\r\nCodec ID/Hint                            : XviD\r\nDuration                                 : 1h 13mn\r\nBit rate                                 : 1 170 Kbps\r\nWidth                                    : 640 pixels\r\nHeight                                   : 272 pixels\r\nDisplay aspect ratio                     : 2.35:1\r\nFrame rate mode                          : Constant\r\nFrame rate                               : 24.000 fps\r\nColor space                              : YUV\r\nChroma subsampling                       : 4:2:0\r\nBit depth                                : 8 bits\r\nScan type                                : Progressive\r\nCompression mode                         : Lossy\r\nBits/(Pixel*Frame)                       : 0.280\r\nStream size                              : 614 MiB (88%)\r\nTitle                                    : ☻rDX☻\r\nWriting library                          : XviD 65\r\nDefault                                  : Yes\r\nForced                                   : No\r\n\r\nAudio\r\nID                                       : 2\r\nFormat                                   : MPEG Audio\r\nFormat version                           : Version 1\r\nFormat profile                           : Layer 3\r\nMode                                     : Joint stereo\r\nCodec ID                                 : A_MPEG/L3\r\nCodec ID/Hint                            : MP3\r\nDuration                                 : 1h 13mn\r\nBit rate mode                            : Constant\r\nBit rate                                 : 128 Kbps\r\nChannel(s)                               : 2 channels\r\nSampling rate                            : 48.0 KHz\r\nCompression mode                         : Lossy\r\nStream size                              : 67.1 MiB (10%)\r\nTitle                                    : ☻rDX☻\r\nWriting library                          : LAME3.99r\r\nEncoding settings                        : -m j -V 4 -q 3 -lowpass 17 -b 128\r\nDefault                                  : Yes\r\nForced                                   : No\r\n\r\nIMDB \nhttp://www.imdb.com/title/tt5000002/","torrent":{"xt":"urn:btih:2d0af71fe9dde0379642c6508455da5438128afe","amp;dn":"18%2B+Hooligan+Legacy+2016+Movies+HDRip+XviD+New+Source+%2BSample+%E2%98%BBr","amp;tr":["udp%3A%2F%2Ftracker.leechers-paradise.org%3A6969","udp%3A%2F%2Fzer0day.ch%3A1337","udp%3A%2F%2Fopen.demonii.com%3A1337","udp%3A%2F%2Ftracker.coppersurfer.tk%3A6969","udp%3A%2F%2Fexodus.desync.com%3A6969"],"infoHash":"2d0af71fe9dde0379642c6508455da5438128afe","infoHashBuffer":{"type":"Buffer","data":[45,10,247,31,233,221,224,55,150,66,198,80,132,85,218,84,56,18,138,254]},"announce":[],"urlList":[]}}